<svg width="38" height="35" viewBox="0 0 38 35" fill="none" xmlns="http://www.w3.org/2000/svg">
<g clip-path="url(#clip0_464_324)">
<path d="M18.9999 32.0833C20.7416 32.0833 22.1666 30.7708 22.1666 29.1666H15.8333C15.8333 30.7708 17.2583 32.0833 18.9999 32.0833ZM28.4999 23.3333V16.0416C28.4999 11.5645 25.9191 7.81659 21.3749 6.82492V5.83325C21.3749 4.62284 20.3141 3.64575 18.9999 3.64575C17.6858 3.64575 16.6249 4.62284 16.6249 5.83325V6.82492C12.0966 7.81659 9.49992 11.5499 9.49992 16.0416V23.3333L6.33325 26.2499V27.7083H31.6666V26.2499L28.4999 23.3333ZM25.3333 24.7916H12.6666V16.0416C12.6666 12.4249 15.0574 9.47909 18.9999 9.47909C22.9424 9.47909 25.3333 12.4249 25.3333 16.0416V24.7916Z" fill="black"/>
</g>
<defs>
<clipPath id="clip0_464_324">
<rect width="38" height="35" fill="white"/>
</clipPath>
</defs>
</svg>
