<svg width="41" height="41" viewBox="0 0 41 41" fill="none" xmlns="http://www.w3.org/2000/svg">
<g filter="url(#filter0_d_434_192)">
<path d="M34.637 9.88701C34.8098 9.71395 34.9275 9.49355 34.9752 9.25364C35.0228 9.01373 34.9983 8.76508 34.9048 8.53909C34.8112 8.3131 34.6527 8.11991 34.4494 7.98392C34.2461 7.84792 34.0071 7.77523 33.7625 7.77501H29.225V3.23751C29.2248 2.99292 29.1521 2.75387 29.0161 2.55057C28.8801 2.34726 28.6869 2.18881 28.4609 2.09524C28.2349 2.00167 27.9863 1.97716 27.7464 2.02482C27.5065 2.07248 27.2861 2.19017 27.113 2.36301L22.988 6.48801C22.7559 6.71987 22.6253 7.03442 22.625 7.36251V12.0419L19.3547 15.3122C18.653 15.1241 17.9088 15.1728 17.2377 15.4508C16.5665 15.7288 16.0058 16.2204 15.6425 16.8496C15.2792 17.4787 15.1337 18.2101 15.2285 18.9304C15.3233 19.6506 15.6532 20.3195 16.1669 20.8331C16.6806 21.3468 17.3494 21.6767 18.0697 21.7715C18.7899 21.8663 19.5213 21.7208 20.1504 21.3575C20.7796 20.9942 21.2712 20.4335 21.5492 19.7623C21.8272 19.0912 21.8759 18.347 21.6878 17.6453L24.9581 14.375H29.6375C29.9656 14.3747 30.2801 14.2442 30.512 14.012L34.637 9.88701ZM18.5 2.00001C20.4267 1.9975 22.3389 2.33315 24.1496 2.99166L21.8198 5.32146C21.7175 5.42376 21.6218 5.53596 21.5376 5.65146C18.7425 4.99133 15.8084 5.26082 13.1802 6.41907C10.5521 7.57732 8.37347 9.56112 6.97477 12.0695C5.57607 14.5779 5.03365 17.4741 5.42978 20.3187C5.82591 23.1633 7.13898 25.801 9.16981 27.8319C11.2006 29.8627 13.8384 31.1757 16.683 31.5719C19.5275 31.968 22.4237 31.4256 24.9321 30.0269C27.4405 28.6282 29.4243 26.4495 30.5826 23.8214C31.7408 21.1933 32.0103 18.2591 31.3502 15.464C31.4657 15.3782 31.5762 15.2825 31.6802 15.1786L34.0067 12.8521C34.6655 14.6621 35.0017 16.5738 35 18.5C35 27.613 27.6129 35 18.5 35C9.38705 35 2 27.613 2 18.5C2 9.38706 9.38705 2.00001 18.5 2.00001ZM18.5 8.60001C19.3547 8.60001 20.183 8.70891 20.975 8.91186V11.3572L20.2919 12.0419C20.2645 12.0689 20.2375 12.0964 20.211 12.1244C19.2331 11.8636 18.2082 11.8309 17.2156 12.0289C16.223 12.2269 15.2891 12.6502 14.4861 13.2663C13.683 13.8824 13.0321 14.6747 12.5838 15.5821C12.1354 16.4895 11.9015 17.4878 11.9 18.5C11.9007 19.4392 12.1018 20.3675 12.4899 21.2227C12.878 22.078 13.4442 22.8405 14.1506 23.4595C14.857 24.0784 15.6874 24.5394 16.5862 24.8118C17.4851 25.0841 18.4317 25.1615 19.3628 25.0387C20.294 24.9159 21.1882 24.5958 21.9857 24.0998C22.7833 23.6037 23.4657 22.9432 23.9876 22.1623C24.5094 21.3814 24.8585 20.4981 25.0117 19.5715C25.1648 18.6449 25.1184 17.6962 24.8756 16.789L24.9581 16.7081L25.6412 16.025H28.0881C28.6043 18.024 28.4826 20.1344 27.74 22.0608C26.9974 23.9872 25.6711 25.6333 23.9468 26.7686C22.2224 27.904 20.1862 28.4719 18.1231 28.3927C16.0601 28.3136 14.0734 27.5915 12.441 26.3274C10.8087 25.0633 9.61235 23.3205 9.01948 21.3429C8.42661 19.3653 8.46686 17.2518 9.13457 15.2982C9.80229 13.3446 11.0641 11.6486 12.7434 10.4475C14.4227 9.24651 16.4354 8.60054 18.5 8.60001Z" fill="white"/>
</g>
<defs>
<filter id="filter0_d_434_192" x="0" y="0" width="41" height="41" filterUnits="userSpaceOnUse" color-interpolation-filters="sRGB">
<feFlood flood-opacity="0" result="BackgroundImageFix"/>
<feColorMatrix in="SourceAlpha" type="matrix" values="0 0 0 0 0 0 0 0 0 0 0 0 0 0 0 0 0 0 127 0" result="hardAlpha"/>
<feOffset dx="2" dy="2"/>
<feGaussianBlur stdDeviation="2"/>
<feColorMatrix type="matrix" values="0 0 0 0 0 0 0 0 0 0 0 0 0 0 0 0 0 0 0.25 0"/>
<feBlend mode="normal" in2="BackgroundImageFix" result="effect1_dropShadow_434_192"/>
<feBlend mode="normal" in="SourceGraphic" in2="effect1_dropShadow_434_192" result="shape"/>
</filter>
</defs>
</svg>
