<svg width="43" height="43" viewBox="0 0 43 43" fill="none" xmlns="http://www.w3.org/2000/svg">
<g filter="url(#filter0_d_434_195)">
<path d="M35.0134 14.481C33.5447 15.1544 31.9051 15.3621 30.3148 15.0764C28.7246 14.7907 27.2599 14.0252 26.1174 12.8827C24.9749 11.7403 24.2094 10.2756 23.9237 8.68534C23.638 7.09511 23.8458 5.45554 24.5191 3.98684C20.8903 2.73209 16.9432 2.74484 13.3226 4.02302C9.70193 5.3012 6.62167 7.76927 4.58486 11.0241C2.54806 14.279 1.67508 18.1283 2.10851 21.9434C2.54193 25.7584 4.25615 29.3138 6.97119 32.0288C9.68622 34.7439 13.2416 36.4581 17.0567 36.8915C20.8718 37.3249 24.7212 36.4519 27.976 34.4151C31.2309 32.3784 33.699 29.2981 34.9772 25.6775C36.2554 22.0569 36.2681 18.1098 35.0134 14.481ZM18.8017 30.3333C18.4568 30.3333 18.1197 30.231 17.8329 30.0394C17.5462 29.8478 17.3226 29.5755 17.1907 29.2568C17.0587 28.9382 17.0242 28.5876 17.0914 28.2494C17.1587 27.9111 17.3248 27.6004 17.5687 27.3565C17.8125 27.1127 18.1232 26.9466 18.4615 26.8793C18.7998 26.812 19.1504 26.8466 19.469 26.9785C19.7876 27.1105 20.06 27.334 20.2516 27.6208C20.4432 27.9075 20.5455 28.2447 20.5455 28.5895C20.5511 28.8221 20.5102 29.0534 20.4251 29.2698C20.3399 29.4863 20.2124 29.6836 20.0499 29.85C19.8874 30.0164 19.6933 30.1486 19.4789 30.2389C19.2645 30.3292 19.0343 30.3756 18.8017 30.3756V30.3333ZM20.2495 21.8153V23.6331C20.2473 24.0028 20.1038 24.3576 19.8483 24.6248C19.5929 24.8921 19.2449 25.0515 18.8757 25.0703H18.7594C18.5726 25.0774 18.3861 25.0474 18.2109 24.982C18.0357 24.9166 17.8752 24.8172 17.7387 24.6895C17.6021 24.5618 17.4922 24.4083 17.4152 24.2378C17.3383 24.0674 17.2959 23.8834 17.2904 23.6965V20.7797C17.273 20.6102 17.2902 20.439 17.3409 20.2764C17.3917 20.1138 17.4749 19.9633 17.5856 19.8338C17.6963 19.7043 17.8321 19.5987 17.9848 19.5233C18.1375 19.4479 18.304 19.4044 18.4741 19.3952C20.1333 19.2684 22.8916 18.6555 22.8916 15.9606C22.8916 14.0266 21.4015 12.7161 19.2667 12.7161C18.4574 12.7295 17.6606 12.9178 16.931 13.268C16.2013 13.6182 15.556 14.1222 15.0394 14.7452C14.844 14.9528 14.5913 15.0977 14.3134 15.1613C14.0355 15.2249 13.7449 15.2044 13.4787 15.1024C13.2125 15.0005 12.9826 14.8216 12.8182 14.5887C12.6539 14.3557 12.5626 14.0791 12.5559 13.7941C12.5621 13.3957 12.7254 13.0159 13.0103 12.7373C13.7951 11.8287 14.7697 11.1032 15.8652 10.6121C16.9608 10.1209 18.1507 9.87592 19.3512 9.89445C23.2615 9.89445 25.9881 12.3251 25.9881 15.8126C25.9881 19.0782 23.9062 21.2341 20.2495 21.8576V21.8153Z" fill="white"/>
<path d="M31.7158 12.5682C34.6341 12.5682 36.9999 10.2024 36.9999 7.28409C36.9999 4.36577 34.6341 2 31.7158 2C28.7974 2 26.4316 4.36577 26.4316 7.28409C26.4316 10.2024 28.7974 12.5682 31.7158 12.5682Z" fill="white"/>
</g>
<defs>
<filter id="filter0_d_434_195" x="0" y="0" width="43" height="43" filterUnits="userSpaceOnUse" color-interpolation-filters="sRGB">
<feFlood flood-opacity="0" result="BackgroundImageFix"/>
<feColorMatrix in="SourceAlpha" type="matrix" values="0 0 0 0 0 0 0 0 0 0 0 0 0 0 0 0 0 0 127 0" result="hardAlpha"/>
<feOffset dx="2" dy="2"/>
<feGaussianBlur stdDeviation="2"/>
<feColorMatrix type="matrix" values="0 0 0 0 0 0 0 0 0 0 0 0 0 0 0 0 0 0 0.25 0"/>
<feBlend mode="normal" in2="BackgroundImageFix" result="effect1_dropShadow_434_195"/>
<feBlend mode="normal" in="SourceGraphic" in2="effect1_dropShadow_434_195" result="shape"/>
</filter>
</defs>
</svg>
