<svg width="49" height="50" viewBox="0 0 49 50" fill="none" xmlns="http://www.w3.org/2000/svg">
<g filter="url(#filter0_d_413_12)">
<path d="M38.0349 24.0475C38.1137 23.3913 38.1662 22.7087 38.1662 22C38.1662 21.2913 38.1137 20.6088 38.0087 19.9525L42.4449 16.4875C42.8387 16.1725 42.9437 15.595 42.7074 15.1487L38.5074 7.8775C38.2449 7.405 37.6937 7.2475 37.2212 7.405L31.9974 9.505C30.8949 8.665 29.7399 7.9825 28.4537 7.4575L27.6662 1.8925C27.5874 1.3675 27.1412 1 26.6162 1H18.2162C17.6912 1 17.2712 1.3675 17.1924 1.8925L16.4049 7.4575C15.1187 7.9825 13.9374 8.69125 12.8612 9.505L7.63744 7.405C7.16494 7.22125 6.61369 7.405 6.35119 7.8775L2.15119 15.1487C1.88869 15.6212 1.99369 16.1725 2.41369 16.4875L6.84994 19.9525C6.74494 20.6088 6.66619 21.3175 6.66619 22C6.66619 22.6825 6.71869 23.3913 6.82369 24.0475L2.38744 27.5125C1.99369 27.8275 1.88869 28.405 2.12494 28.8512L6.32494 36.1225C6.58744 36.595 7.13869 36.7525 7.61119 36.595L12.8349 34.495C13.9374 35.335 15.0924 36.0175 16.3787 36.5425L17.1662 42.1075C17.2712 42.6325 17.6912 43 18.2162 43H26.6162C27.1412 43 27.5874 42.6325 27.6399 42.1075L28.4274 36.5425C29.7137 36.0175 30.8949 35.3088 31.9712 34.495L37.1949 36.595C37.6674 36.7788 38.2187 36.595 38.4812 36.1225L42.6812 28.8512C42.9437 28.3787 42.8387 27.8275 42.4187 27.5125L38.0349 24.0475ZM22.4162 29.875C18.0849 29.875 14.5412 26.3313 14.5412 22C14.5412 17.6688 18.0849 14.125 22.4162 14.125C26.7474 14.125 30.2912 17.6688 30.2912 22C30.2912 26.3313 26.7474 29.875 22.4162 29.875Z" fill="#F2F3F7"/>
</g>
<defs>
<filter id="filter0_d_413_12" x="0" y="0" width="48.8323" height="50" filterUnits="userSpaceOnUse" color-interpolation-filters="sRGB">
<feFlood flood-opacity="0" result="BackgroundImageFix"/>
<feColorMatrix in="SourceAlpha" type="matrix" values="0 0 0 0 0 0 0 0 0 0 0 0 0 0 0 0 0 0 127 0" result="hardAlpha"/>
<feOffset dx="2" dy="3"/>
<feGaussianBlur stdDeviation="2"/>
<feColorMatrix type="matrix" values="0 0 0 0 0 0 0 0 0 0 0 0 0 0 0 0 0 0 0.25 0"/>
<feBlend mode="normal" in2="BackgroundImageFix" result="effect1_dropShadow_413_12"/>
<feBlend mode="normal" in="SourceGraphic" in2="effect1_dropShadow_413_12" result="shape"/>
</filter>
</defs>
</svg>
