<svg width="377" height="252" viewBox="0 0 377 252" fill="none" xmlns="http://www.w3.org/2000/svg">
<g clip-path="url(#clip0_468_411)">
<path d="M187.809 62.1902L187.799 62.2761L187.772 62.5243L185 88.4696L168.023 96.5925L167.757 96.4267L158.253 90.5402L153.338 65.9489L153.001 64.2608L153.104 64.2094L174.13 53.9079L187.796 62.1803L187.809 62.1902Z" fill="#8AC485"/>
<path d="M167.757 96.4268L158.253 90.5403L153.001 64.2609L153.104 64.2095L166.802 71.7462L167.757 96.4268Z" fill="#8AC485"/>
<path opacity="0.2" d="M167.995 96.1268L160.765 78.0591L161.694 72.9369L157.321 66.2214L156.948 66.6339L161.161 73.1037L158.014 90.4667L158.49 90.6138L160.593 79.007L167.561 96.4214L167.995 96.1268Z" fill="black"/>
<path d="M187.809 62.5085L187.772 62.5243L166.802 72.0649L153.338 65.9489L153.001 64.2608L153.104 64.2095L174.13 53.9079L187.796 62.1803L187.799 62.2761L187.809 62.5085Z" fill="#3F3D56"/>
<path d="M167.169 72.5426L162.894 68.2426L163.871 63.4644L176.084 57.7303L184.389 58.3674L187.687 62.0309L187.931 62.9862L167.169 72.5426Z" fill="#8AC485"/>
<path d="M153.245 64.2608L162.893 63.7826L168.12 61.4693L176.269 57.7303L177.793 54.8638L173.99 53.976L153.245 64.2608Z" fill="#8AC485"/>
<path d="M172.468 59.1349L167.438 61.4373L167.599 62.0383L172.63 59.7359L172.468 59.1349Z" fill="#CCCCCC"/>
<path d="M106.203 21.8822L103.844 37.26L114.85 48.0249L119.96 28.0332L106.203 21.8822Z" fill="#9F616A"/>
<path d="M115.047 35.9786C120.908 35.9786 125.66 29.7821 125.66 22.1383C125.66 14.4945 120.908 8.29797 115.047 8.29797C109.185 8.29797 104.434 14.4945 104.434 22.1383C104.434 29.7821 109.185 35.9786 115.047 35.9786Z" fill="#9F616A"/>
<path d="M92.0533 127.004C92.1018 131.47 107.015 181.166 104.944 187.637C101.68 191.988 94.6594 215.146 91.6599 221.324C91.2671 221.324 89.3018 229.013 89.3018 229.013C89.3018 229.013 94.0186 238.752 99.1286 234.651C105.554 214.944 121.645 203.952 121.93 178.267C122.706 186.381 124.999 238.464 124.999 238.464C124.999 238.464 124.559 238.707 134.459 239.944C135.996 209.716 142.276 158.288 128.215 125.979C123.892 123.416 92.0533 127.004 92.0533 127.004Z" fill="#2F2E41"/>
<path d="M124.999 237.45C124.539 238.602 121.244 249.24 124.243 250.307C127.701 251.537 131.054 249.813 131.054 249.813C131.054 249.813 137.108 252.281 140.813 249.145C142.542 246.89 142.149 244.84 141.324 243.353C140.905 242.621 140.368 242.017 139.751 241.583C139.134 241.15 138.452 240.897 137.753 240.843C135.872 240.668 135.275 240.214 135.06 239.09C134.745 237.45 124.999 237.45 124.999 237.45Z" fill="#2F2E41"/>
<path d="M92.6574 228.16C92.6574 228.16 84.2091 231.64 85.9877 235.699C87.1428 238.214 88.8294 240.243 90.8456 241.541C90.8456 241.541 92.6075 251.013 97.4986 251.013C99.9442 251.013 100.778 249.201 101 247.389C101.101 246.485 101.049 245.562 100.848 244.687C100.646 243.812 100.301 243.004 99.836 242.32C98.6013 240.463 98.4255 239.591 98.8824 238.598C99.5493 237.148 92.6574 228.16 92.6574 228.16Z" fill="#2F2E41"/>
<path d="M130.182 128.505C130.182 128.505 128.608 132.606 122.319 131.066C116.03 129.531 91.2677 131.066 91.2677 131.066C91.2677 131.066 92.6413 94.4164 89.4969 72.3734C86.3524 50.3304 98.7335 37.7717 98.7335 37.7717L102.665 32.6446C106.597 32.1363 114.899 48.0456 114.899 48.0456C117.631 48.6427 120.181 63.7871 122.357 78.1173C122.485 78.9365 122.606 79.7457 122.728 80.555C123.73 87.2365 125.127 94.673 125.963 101.35C126.023 101.823 126.08 102.292 126.133 102.761C127.127 111.431 128.479 120.025 130.182 128.505Z" fill="#E6E6E6"/>
<path d="M102.633 13.5206C102.633 13.5206 100.648 7.8277 105.807 5.24003C105.807 5.24003 110.173 -4.07558 118.903 2.13483C118.903 2.13483 124.856 5.24003 124.856 13.5206C124.856 21.8011 126.84 23.3537 126.84 23.3537C126.84 23.3537 123.886 19.4004 123.092 16.2952C122.298 13.19 116.125 12.4855 113.744 15.5907C111.363 18.6959 105.41 18.1784 105.41 18.1784L105.807 29.5641C105.807 29.5641 103.823 22.8362 103.029 22.8362C102.236 22.8362 101.442 13.5206 102.633 13.5206Z" fill="#2F2E41"/>
<path opacity="0.2" d="M125.963 101.35C116.587 94.7029 101.398 80.126 96.4977 72.2404C90.0385 61.853 97.0842 53.9576 97.0842 53.9576C105.072 47.3846 114.623 69.9359 114.623 69.9359L122.357 78.1176C122.486 78.9367 122.607 79.746 122.728 80.5553C123.731 87.2368 125.127 94.6733 125.963 101.35Z" fill="black"/>
<path d="M153.952 93.6898C153.952 93.6898 167.892 101.07 170.186 92.7737C172.481 84.4776 159.18 84.62 159.18 84.62L153.959 85.5848L153.952 93.6898Z" fill="#9F616A"/>
<path d="M95.2974 50.5815C95.2974 50.5815 88.2551 58.4815 94.7097 68.8655C101.164 79.2495 130.828 101.436 130.828 101.436L150.15 94.6243L155.618 95.9292L156.649 82.5413L148.594 83.5668L128.145 77.8887L115.105 64.0908C115.105 64.0908 103.283 44.0121 95.2974 50.5815Z" fill="#E6E6E6"/>
<path opacity="0.2" d="M120.953 145.751L122.185 183.294L119.061 145.751H120.953Z" fill="black"/>
<path d="M253.974 118.895L242.789 122.274C241.924 122.536 241.015 122.347 240.255 121.748C239.494 121.149 238.943 120.187 238.718 119.067C238.588 118.417 238.572 117.737 238.671 117.078C238.771 116.419 238.984 115.798 239.294 115.262C239.604 114.725 240.003 114.287 240.461 113.981C240.919 113.674 241.425 113.506 241.94 113.491L252.743 113.163L253.974 118.895Z" fill="#FFB9B9"/>
<path d="M252.787 121.035L250.303 111.317L265.195 104.683L261.243 59.2917C268.359 60.979 271.746 68.2765 271.428 77.6998L273.355 108.674L252.787 121.035Z" fill="#3F3D56"/>
<path d="M263.075 49.284H287.406V33.5052C287.414 29.2438 286.134 25.1499 283.842 22.1119C282.723 20.6152 281.385 19.4263 279.907 18.6156C278.43 17.8048 276.843 17.3886 275.24 17.3916C272.038 17.3993 268.968 19.0498 266.692 21.9863C264.417 24.9228 263.119 28.9092 263.079 33.0838C263.077 33.2283 263.075 33.3655 263.075 33.5052L263.075 49.284Z" fill="#2F2E41"/>
<path d="M297.577 234.706L289.8 233.543L280.493 151.571L261.241 233.875L252.826 234.208L262.388 132.949L260.986 109.838L284.828 100.028C301.714 115.401 301.365 169.699 297.577 234.706Z" fill="#2F2E41"/>
<path d="M273.095 46.1564C278.165 46.1564 282.275 40.7966 282.275 34.1849C282.275 27.5733 278.165 22.2135 273.095 22.2135C268.025 22.2135 263.915 27.5733 263.915 34.1849C263.915 40.7966 268.025 46.1564 273.095 46.1564Z" fill="#FFB9B9"/>
<path d="M282.278 55.8L266.724 61.1206C269.344 54.5481 270.183 48.4127 268.764 42.831L279.728 40.5032C279.024 45.8405 279.938 51.326 282.278 55.8Z" fill="#FFB9B9"/>
<path d="M287.506 104.517C278.781 111.753 268.618 120.065 261.113 111.999L257.543 89.3867C254.706 86.0909 255.964 75.9209 259.8 61.4248C260.044 60.5047 260.445 59.669 260.973 58.981C261.501 58.293 262.142 57.7709 262.848 57.4542L268.763 54.8025C271.385 57.6775 275.682 55.9628 280.748 52.1422L286.613 54.1375L289.163 79.0779C285.482 86.27 286.125 95.8466 287.506 104.517Z" fill="#3F3D56"/>
<path d="M280.238 114.239L269.054 117.619C268.189 117.88 267.279 117.691 266.519 117.092C265.759 116.494 265.208 115.532 264.983 114.411C264.852 113.761 264.836 113.082 264.936 112.423C265.036 111.764 265.249 111.143 265.559 110.606C265.868 110.07 266.267 109.632 266.726 109.325C267.184 109.018 267.689 108.851 268.204 108.835L279.008 108.508L280.238 114.239Z" fill="#FFB9B9"/>
<path d="M296.223 250.378C294.917 251.155 293.823 246.337 292.721 247.749C289.639 251.699 282.246 250.813 282.246 250.813C281.998 250.709 281.768 250.541 281.572 250.318C281.375 250.094 281.215 249.822 281.101 249.516C280.988 249.209 280.923 248.876 280.911 248.537C280.899 248.197 280.94 247.858 281.032 247.539C281.141 247.158 281.32 246.818 281.553 246.547C281.786 246.276 282.066 246.083 282.368 245.984L285.646 244.916L290.792 233.113L296.401 232.187L296.543 232.489C297.627 234.768 298.326 237.322 298.593 239.982C298.86 242.641 298.69 245.344 298.092 247.91C297.626 249.859 296.991 249.921 296.223 250.378Z" fill="#2F2E41"/>
<path d="M259.249 250.378C257.943 251.155 256.849 246.337 255.747 247.749C252.665 251.699 245.272 250.813 245.272 250.813C245.023 250.709 244.794 250.541 244.597 250.318C244.4 250.094 244.24 249.822 244.127 249.516C244.013 249.209 243.949 248.876 243.937 248.537C243.925 248.197 243.966 247.858 244.057 247.539C244.167 247.158 244.346 246.818 244.579 246.547C244.811 246.276 245.091 246.083 245.394 245.984L248.671 244.916L253.818 233.113L259.426 232.187L259.568 232.489C260.652 234.768 261.351 237.322 261.619 239.982C261.886 242.641 261.715 245.344 261.118 247.91C260.651 249.859 260.016 249.921 259.249 250.378Z" fill="#2F2E41"/>
<path d="M283.86 24.1998L281.548 33.7925L261.559 33.3292C261.627 29.973 262.497 26.7283 264.048 24.0486C265.6 21.3689 267.754 19.3879 270.21 18.3823C272.666 17.3767 275.302 17.3968 277.75 18.4398C280.197 19.4828 282.333 21.4965 283.86 24.1998H283.86Z" fill="#2F2E41"/>
<path d="M279.049 116.38L276.565 106.661L291.457 100.028L285.824 53.6526C289.265 54.4685 292.363 56.8824 294.544 60.4475C296.726 64.0126 297.844 68.4876 297.69 73.0443L299.617 104.018L279.049 116.38Z" fill="#3F3D56"/>
<path d="M243.48 90.1795L227.991 94.5235L224.827 74.6502L230.656 64.442L235.902 63.1387L241.731 70.8491L243.48 90.1795Z" fill="#CCCCCC"/>
<path d="M236.321 91.0463H226.994L225.722 82.8597L224.33 73.8885L226.411 69.9803L230.41 71.6087L234.739 79.4301L235.825 87.3996L235.901 87.9671L236.321 91.0463Z" fill="#E6E6E6"/>
<path d="M251.974 86.27L241.232 87.8989L243.147 70.0893L247.477 64.9849L251.225 66.1795L253.723 73.6728L251.974 86.27Z" fill="#CCCCCC"/>
<path d="M253.39 75.734L252.391 82.904L249.145 107.335L236.654 112.551L236.223 112.245L229.491 107.444L225.703 82.8497L225.722 82.8596L235.738 88.115L235.825 87.3995L235.886 86.8813L236.654 80.5156L240.067 75.734L251.476 72.1514L253.39 75.734Z" fill="#E6E6E6"/>
<path d="M245.48 74.9759C246.951 74.9759 248.144 73.42 248.144 71.5008C248.144 69.5816 246.951 68.0257 245.48 68.0257C244.008 68.0257 242.815 69.5816 242.815 71.5008C242.815 73.42 244.008 74.9759 245.48 74.9759Z" fill="#E6E6E6"/>
<path d="M238.927 73.2942L232.849 74.7059L232.878 74.9197L238.957 73.508L238.927 73.2942Z" fill="white"/>
<path d="M236.223 112.245L229.491 107.444L225.703 82.8498L225.722 82.8597L224.33 73.8885L226.411 69.9803L230.41 71.6087L234.739 79.4301L235.825 87.3996L235.886 86.8814L235.901 87.9671L235.943 91.0463L236.223 112.245Z" fill="#F2F2F2"/>
<path d="M229.571 107.474L229.41 107.418L232.73 91.1803L228.928 84.6434L229.061 84.5121L232.912 91.1334L229.571 107.474Z" fill="#CCCCCC"/>
<path d="M231.445 98.2042L231.295 98.2985L236.577 112.597L236.727 112.503L231.445 98.2042Z" fill="#CCCCCC"/>
<path opacity="0.2" d="M252.733 81.4159L252.107 85.9216L252.076 85.9259L249.276 106.989L236.785 112.202L236.71 112.249L236.66 112.113L229.623 107.098L229.543 107.07L229.586 106.857L225.834 82.5008L225.854 82.5105L225.438 79.8369L225.749 79.2537L226.709 77.451L230.706 79.08L235.036 86.899L235.099 87.3637L235.554 90.6999L235.736 92.0399L236.122 94.8711L236.488 91.8293L236.62 90.7346L236.951 87.9849L240.366 83.2067L241.884 82.7299L242.94 82.3976L244.394 81.9415C243.944 81.5841 243.584 81.0601 243.362 80.436C243.139 79.8119 243.064 79.1158 243.146 78.4359C243.227 77.7559 243.461 77.1228 243.819 76.6168C244.176 76.1107 244.641 75.7545 245.154 75.5933C245.667 75.4321 246.205 75.4732 246.701 75.7113C247.196 75.9494 247.625 76.3739 247.935 76.9309C248.245 77.4879 248.421 78.1523 248.441 78.84C248.461 79.5277 248.324 80.2076 248.048 80.7936L251.774 79.623L252.693 81.342L252.733 81.4159Z" fill="black"/>
<path d="M236.619 99.6048H227.293L224.628 82.4465L226.71 78.5368L230.707 80.1657L235.037 87.9847L236.619 99.6048Z" fill="#E6E6E6"/>
<path d="M249.443 115.894L236.951 121.107L229.79 116.003L226.001 91.4057L236.036 96.6725L236.951 89.0707L240.366 84.2925L251.774 80.7089L253.69 84.2925L252.69 91.46L249.443 115.894Z" fill="#E6E6E6"/>
<path d="M245.778 83.5324C247.25 83.5324 248.443 81.9766 248.443 80.0573C248.443 78.1381 247.25 76.5822 245.778 76.5822C244.306 76.5822 243.113 78.1381 243.113 80.0573C243.113 81.9766 244.306 83.5324 245.778 83.5324Z" fill="#E6E6E6"/>
<path d="M236.528 120.634L229.797 115.833L226.009 91.2387L226.028 91.2486L224.635 82.2774L226.716 78.3691L230.716 79.9976L235.045 87.819L236.131 95.7884L236.191 95.2703L236.207 96.3559L236.248 99.4351L236.528 120.634Z" fill="#F2F2F2"/>
<path d="M229.869 116.031L229.709 115.975L233.029 99.7365L229.227 93.1996L229.359 93.0684L233.211 99.6901L229.869 116.031Z" fill="#CCCCCC"/>
<path d="M231.747 106.761L231.597 106.855L236.879 121.154L237.029 121.06L231.747 106.761Z" fill="#CCCCCC"/>
<path d="M341.106 229.507L325.617 233.851L322.453 213.978L328.282 203.769L333.528 202.466L339.357 210.176L341.106 229.507Z" fill="#CCCCCC"/>
<path d="M333.947 230.373H324.619L323.348 222.187L321.956 213.216L324.037 209.307L328.036 210.936L332.365 218.757L333.451 226.727L333.527 227.294L333.947 230.373Z" fill="#E6E6E6"/>
<path d="M349.6 225.598L338.858 227.227L340.773 209.417L345.103 204.313L348.851 205.507L351.349 213L349.6 225.598Z" fill="#CCCCCC"/>
<path d="M351.016 215.061L350.017 222.232L346.771 246.663L334.28 251.879L333.848 251.573L327.117 246.771L323.329 222.177L323.348 222.187L333.364 227.443L333.451 226.727L333.512 226.209L334.28 219.843L337.693 215.061L349.102 211.479L351.016 215.061Z" fill="#E6E6E6"/>
<path d="M343.106 214.304C344.577 214.304 345.77 212.748 345.77 210.829C345.77 208.909 344.577 207.353 343.106 207.353C341.634 207.353 340.441 208.909 340.441 210.829C340.441 212.748 341.634 214.304 343.106 214.304Z" fill="#E6E6E6"/>
<path d="M336.554 212.622L330.475 214.034L330.504 214.247L336.583 212.836L336.554 212.622Z" fill="white"/>
<path d="M333.849 251.573L327.117 246.771L323.329 222.177L323.348 222.187L321.956 213.216L324.037 209.307L328.036 210.936L332.365 218.757L333.451 226.727L333.512 226.209L333.527 227.294L333.569 230.373L333.849 251.573Z" fill="#F2F2F2"/>
<path d="M327.197 246.802L327.036 246.746L330.356 230.508L326.554 223.971L326.687 223.84L330.538 230.461L327.197 246.802Z" fill="#CCCCCC"/>
<path d="M329.072 237.532L328.922 237.626L334.203 251.925L334.353 251.831L329.072 237.532Z" fill="#CCCCCC"/>
<path d="M371.714 249.984H361.497L359.983 224.324H373.227L371.714 249.984Z" fill="#E6E6E6"/>
<path d="M373.418 234.687H359.795V238.634H373.418V234.687Z" fill="#F2F2F2"/>
<path d="M376.916 226.166L374.738 225.33L374.71 224.29L365.03 220.572L364.574 221.425L362.397 220.589L361.029 223.15L377 229.285L376.916 226.166Z" fill="#CCCCCC"/>
<path d="M56.5067 217.597L56.4969 217.683L56.47 217.932L53.6975 243.877L36.7211 252L36.4551 251.834L26.9506 245.948L22.036 221.356L21.6992 219.668L21.8018 219.617L42.8277 209.315L56.4942 217.588L56.5067 217.597Z" fill="#8AC485"/>
<path d="M36.4552 251.834L26.9506 245.948L21.6992 219.668L21.8018 219.617L35.5001 227.154L36.4552 251.834Z" fill="#8AC485"/>
<path opacity="0.2" d="M36.6925 251.534L29.4629 233.466L30.3915 228.345L26.0183 221.628L25.646 222.041L29.8591 228.511L26.7119 245.874L27.1876 246.021L29.2911 234.415L36.2592 251.829L36.6925 251.534Z" fill="black"/>
<path d="M56.5067 217.916L56.47 217.932L35.5001 227.472L22.036 221.356L21.6992 219.668L21.8018 219.617L42.8277 209.315L56.4942 217.588L56.4969 217.683L56.5067 217.916Z" fill="#3F3D56"/>
<path d="M35.8636 227.95L31.5889 223.65L32.5659 218.872L44.779 213.138L53.0841 213.775L56.3818 217.438L56.6258 218.394L35.8636 227.95Z" fill="#8AC485"/>
<path d="M21.9424 219.668L31.5907 219.19L36.8175 216.877L44.9666 213.138L46.4908 210.271L42.6879 209.384L21.9424 219.668Z" fill="#8AC485"/>
<path d="M41.166 214.542L36.1353 216.844L36.297 217.445L41.3277 215.143L41.166 214.542Z" fill="#CCCCCC"/>
<path d="M13.6224 250.574H3.40567L1.89209 224.914H15.1359L13.6224 250.574Z" fill="#8AC485"/>
<path d="M15.3268 235.277H1.70459V239.224H15.3268V235.277Z" fill="#E6E6E6"/>
<path d="M15.8926 223.434H13.6222L13.3699 222.447H3.27955L3.02716 223.434H0.756791L0 226.394H16.6494L15.8926 223.434Z" fill="#3F3D56"/>
<path d="M305.874 250.271H76.5303V251.258H305.874V250.271Z" fill="#3F3D56"/>
</g>
<defs>
<clipPath id="clip0_468_411">
<rect width="377" height="252" fill="white"/>
</clipPath>
</defs>
</svg>
