<svg width="27" height="27" viewBox="0 0 27 27" fill="none" xmlns="http://www.w3.org/2000/svg">
<g opacity="0.8" clip-path="url(#clip0_495_81)">
<path d="M26.7131 13.8038C26.7131 12.915 26.6344 12.0713 26.4994 11.25H13.7869V16.3238H21.0656C20.7394 17.9888 19.7831 19.395 18.3656 20.3513V23.7263H22.7081C25.2506 21.375 26.7131 17.91 26.7131 13.8038Z" fill="#4285F4"/>
<path d="M13.7869 27C17.4319 27 20.4807 25.785 22.7082 23.7262L18.3657 20.3512C17.1507 21.1612 15.6094 21.6562 13.7869 21.6562C10.2657 21.6562 7.28441 19.2825 6.21566 16.0762H1.73816V19.5525C3.95441 23.9625 8.51066 27 13.7869 27Z" fill="#34A853"/>
<path d="M6.21562 16.0763C5.93437 15.2663 5.78812 14.4 5.78812 13.5C5.78812 12.6 5.94562 11.7338 6.21562 10.9238V7.44751H1.73811C0.815614 9.27001 0.286865 11.3175 0.286865 13.5C0.286865 15.6825 0.815614 17.73 1.73811 19.5525L6.21562 16.0763Z" fill="#FBBC05"/>
<path d="M13.7869 5.34375C15.7782 5.34375 17.5557 6.03 18.9619 7.36875L22.8094 3.52125C20.4807 1.33875 17.4319 0 13.7869 0C8.51066 0 3.95441 3.0375 1.73816 7.4475L6.21566 10.9238C7.28441 7.7175 10.2657 5.34375 13.7869 5.34375Z" fill="#EA4335"/>
</g>
<defs>
<clipPath id="clip0_495_81">
<rect width="27" height="27" fill="white"/>
</clipPath>
</defs>
</svg>
