<svg width="398" height="305" viewBox="0 0 398 305" fill="none" xmlns="http://www.w3.org/2000/svg">
<g clip-path="url(#clip0_464_410)">
<path d="M59.0186 292.162L66.7398 294.121L78.7415 268.024L67.3457 265.133L59.0186 292.162Z" fill="#FFB8B8"/>
<path d="M79.627 304.406L55.3591 298.249L57.9805 289.74L73.8106 293.756C76.0484 294.324 77.9461 295.676 79.0861 297.513C80.226 299.351 80.515 301.524 79.8893 303.555L79.627 304.406Z" fill="#2F2E41"/>
<path d="M151.126 297.65L159.143 297.649L162.956 269.583L151.123 269.584L151.126 297.65Z" fill="#FFB8B8"/>
<path d="M174.607 304.404L149.409 304.406L149.408 295.571L165.845 295.57C166.995 295.569 168.135 295.775 169.198 296.175C170.261 296.574 171.227 297.16 172.04 297.898C172.854 298.636 173.499 299.513 173.94 300.477C174.38 301.442 174.607 302.476 174.607 303.52L174.607 304.404Z" fill="#2F2E41"/>
<path d="M91.5452 181.131L73.0908 222.159L148.446 237.523L149.407 214.568L115.19 181.493L91.5452 181.131Z" fill="#B3B3B3"/>
<path d="M132.43 117.217C140.778 113.076 143.845 103.578 139.282 96.0025C134.719 88.4269 124.253 85.6428 115.906 89.784C107.558 93.9251 104.49 103.423 109.054 110.999C113.617 118.574 124.083 121.359 132.43 117.217Z" fill="#FFB8B8"/>
<path d="M136.476 178.861L102.367 166.189L99.3302 148.017C98.4359 142.705 99.8324 137.285 103.229 132.884C106.626 128.482 111.762 125.439 117.568 124.387L122.08 123.564C125.786 122.891 129.618 123.049 133.241 124.024C136.865 125 140.172 126.763 142.874 129.162C145.521 131.457 147.5 134.311 148.636 137.47C149.771 140.629 150.026 143.993 149.379 147.264C148.87 150.066 147.617 152.713 145.73 154.979C135.015 167.695 136.391 178.266 136.406 178.372L136.476 178.861Z" fill="#8AC485"/>
<path d="M150.365 226.253L133.271 201.581L138.655 156.702L131.217 123.137L131.613 123.146C135.939 123.243 140.058 124.846 143.117 127.623C146.176 130.401 147.941 134.14 148.046 138.066L155.281 170.956L150.365 226.253Z" fill="#2F2E41"/>
<path d="M150.755 292.344C150.035 292.343 149.337 292.117 148.779 291.702C148.222 291.288 147.84 290.711 147.698 290.07L140.209 256.274C138.841 250.082 136.265 244.162 132.603 238.792L111.471 207.77C111.366 207.615 111.216 207.49 111.038 207.408C110.859 207.327 110.66 207.291 110.46 207.305C110.261 207.32 110.07 207.384 109.908 207.49C109.746 207.597 109.62 207.742 109.543 207.91L74.8011 283.651C74.5218 284.257 74.02 284.756 73.381 285.063C72.742 285.371 72.0053 285.468 71.2964 285.338L62.0154 283.62C61.2204 283.476 60.5188 283.056 60.0604 282.449C59.602 281.842 59.4232 281.097 59.562 280.372L67.1332 239.878C68.6776 231.625 71.3092 223.569 74.9713 215.885L100.612 162.106L138.452 173.384L140.949 197.43L158.433 235.851C159.641 238.504 160.363 241.319 160.571 244.184L163.801 288.588C163.851 289.329 163.58 290.058 163.046 290.621C162.512 291.183 161.756 291.533 160.941 291.597L151.012 292.335C150.926 292.341 150.84 292.344 150.755 292.344Z" fill="#2F2E41"/>
<path d="M81.726 237.255L69.7297 226.922L92.401 147.583C93.8394 142.595 96.5362 137.978 100.278 134.098C104.021 130.219 108.706 127.182 113.963 125.227L114.409 125.063L113.197 173.35L81.726 237.255Z" fill="#2F2E41"/>
<path d="M120.154 119.077C115.898 115.734 114.604 109.498 117.212 104.901C119.819 100.304 126.054 97.8289 131.386 99.275C136.407 100.637 142.115 96.0939 141.503 91.2225C140.891 86.3511 134.214 83.1779 129.668 85.598C126.225 84.3439 122.456 84.0192 118.815 84.6629C115.173 85.3066 111.814 86.8912 109.141 89.2262C103.8 93.9749 101.773 101.738 104.171 108.266C106.569 114.794 113.263 119.736 120.154 119.077Z" fill="#2F2E41"/>
<path d="M105.085 246.127C104.875 246.2 104.656 246.252 104.433 246.28L77.0451 249.749C76.3825 249.835 75.7074 249.714 75.1308 249.406C74.5542 249.097 74.1105 248.62 73.8725 248.052L50.2979 192.382C50.1453 192.021 50.08 191.635 50.1066 191.25C50.1332 190.865 50.2511 190.489 50.4521 190.149C50.6531 189.808 50.9326 189.511 51.2716 189.278C51.6105 189.045 52.0009 188.88 52.4162 188.796L52.4163 188.796L78.1719 183.58C78.3707 183.54 78.5629 183.476 78.7436 183.39L103.795 171.504C103.988 171.412 104.192 171.34 104.404 171.289L131.972 164.619C132.678 164.447 133.43 164.519 134.081 164.82C134.732 165.122 135.237 165.631 135.498 166.251L156.054 214.792C156.234 215.215 156.293 215.673 156.225 216.122C156.157 216.571 155.964 216.997 155.665 217.36L148.556 226.024C148.221 226.432 147.766 226.745 147.243 226.927L131.707 232.346C131.596 232.384 131.488 232.431 131.384 232.485L105.496 245.95C105.364 246.019 105.227 246.078 105.085 246.127Z" fill="white"/>
<path d="M117.828 172.04L114.327 172.888L105.05 175.133L105.033 175.137L92.3316 181.164L87.618 183.401L87.6159 183.402L80.5365 186.76L80.3423 186.8L72.9881 188.288L69.4338 189.01L54.937 191.945L77.6951 245.688L92.6339 243.796L96.2968 243.331L104.104 242.341L104.195 242.33L129.282 229.281L144.545 223.958L151.514 215.465L131.704 168.684L117.828 172.04Z" fill="#E6E6E6"/>
<path d="M134.968 176.391L59.4966 202.713L60.789 205.765L136.26 179.443L134.968 176.391Z" fill="white"/>
<path d="M139.276 186.564L63.8047 212.886L65.0971 215.938L140.568 189.616L139.276 186.564Z" fill="white"/>
<path d="M147.978 207.115L72.5071 233.437L73.7995 236.489L149.27 210.167L147.978 207.115Z" fill="white"/>
<path d="M117.828 172.04L140.422 225.396L137.059 226.569L114.327 172.888L117.828 172.04Z" fill="white"/>
<path d="M92.3316 181.164L87.6921 192.879L86.0834 196.943L82.3307 206.425L81.5266 208.452L80.7219 210.489L79.6622 213.163L72.0564 232.373L70.0791 227.703L76.2806 212.038L77.6836 208.492L77.8894 207.974L79.5486 203.781L81.6421 198.492L83.2509 194.428L87.6158 183.401L87.6177 183.401L92.3316 181.164Z" fill="white"/>
<path opacity="0.1" d="M129.829 229.091L129.281 229.282L104.194 242.33L104.104 242.341L80.342 186.8L80.5364 186.76L87.6159 183.402L87.6178 183.401L92.3317 181.164L105.033 175.136L105.05 175.133L129.829 229.091Z" fill="black"/>
<path d="M105.198 246.394C104.966 246.476 104.724 246.532 104.477 246.563L77.0888 250.033C76.3556 250.128 75.6085 249.994 74.9705 249.653C74.3324 249.311 73.8413 248.783 73.578 248.155L50.0034 192.485C49.8345 192.086 49.7624 191.658 49.7918 191.232C49.8213 190.806 49.9517 190.39 50.1741 190.013C50.3966 189.637 50.7059 189.308 51.081 189.05C51.4561 188.792 51.8881 188.61 52.3476 188.517L78.1032 183.301C78.275 183.265 78.4412 183.21 78.5975 183.136L103.648 171.25C103.863 171.148 104.088 171.068 104.322 171.012L131.891 164.342C132.672 164.152 133.504 164.231 134.224 164.565C134.945 164.898 135.504 165.462 135.793 166.148L156.348 214.689C156.548 215.157 156.613 215.664 156.538 216.161C156.463 216.658 156.249 217.13 155.918 217.532L148.809 226.195C148.439 226.646 147.935 226.993 147.357 227.194L131.821 232.613C131.724 232.646 131.631 232.687 131.541 232.733L105.653 246.198C105.507 246.274 105.355 246.34 105.198 246.394ZM52.3383 189.712C51.8401 189.887 51.4383 190.233 51.2214 190.676C51.0045 191.118 50.9902 191.621 51.1817 192.074L74.7563 247.744C74.9181 248.13 75.22 248.455 75.6122 248.665C76.0044 248.875 76.4636 248.957 76.9143 248.898L104.302 245.429C104.557 245.396 104.802 245.32 105.026 245.204L130.914 231.739C131.06 231.664 131.211 231.598 131.368 231.544L146.904 226.125C147.259 226.001 147.569 225.788 147.797 225.511L154.905 216.847C155.109 216.6 155.24 216.31 155.287 216.005C155.333 215.699 155.293 215.388 155.17 215.1L134.614 166.559C134.437 166.138 134.093 165.791 133.65 165.586C133.208 165.381 132.697 165.332 132.216 165.449L104.647 172.119C104.504 172.154 104.365 172.203 104.234 172.265L79.1823 184.152C78.9281 184.272 78.6579 184.361 78.3784 184.419L52.6226 189.635C52.5259 189.654 52.4309 189.68 52.3383 189.712Z" fill="#E6E6E6"/>
<path d="M72.9879 188.288L96.2963 243.331L92.6338 243.795L69.4333 189.009L72.9879 188.288Z" fill="white"/>
<path d="M79.6918 210.506C80.6204 210.506 81.3731 209.823 81.3731 208.98C81.3731 208.137 80.6204 207.454 79.6918 207.454C78.7633 207.454 78.0105 208.137 78.0105 208.98C78.0105 209.823 78.7633 210.506 79.6918 210.506Z" fill="#3F3D56"/>
<path d="M139.306 212.132C140.234 212.132 140.987 211.449 140.987 210.606C140.987 209.764 140.234 209.081 139.306 209.081C138.377 209.081 137.624 209.764 137.624 210.606C137.624 211.449 138.377 212.132 139.306 212.132Z" fill="#8AC485"/>
<path d="M139.986 183.047C141.895 187.553 139.598 202.487 138.791 207.28C138.765 207.432 138.696 207.575 138.59 207.695C138.483 207.815 138.344 207.907 138.186 207.962C138.028 208.017 137.856 208.034 137.689 208.009C137.522 207.985 137.365 207.921 137.233 207.823C133.096 204.754 120.371 195.06 118.463 190.554C117.92 189.271 117.66 187.904 117.699 186.531C117.738 185.157 118.075 183.804 118.69 182.549C119.306 181.293 120.187 180.16 121.285 179.214C122.383 178.268 123.676 177.527 125.089 177.034C126.502 176.541 128.008 176.306 129.522 176.341C131.035 176.377 132.526 176.682 133.91 177.241C135.293 177.799 136.542 178.599 137.584 179.595C138.627 180.592 139.443 181.765 139.986 183.047V183.047Z" fill="#8AC485"/>
<path d="M129.225 192.468C132.674 192.468 135.47 189.931 135.47 186.801C135.47 183.671 132.674 181.133 129.225 181.133C125.776 181.133 122.98 183.671 122.98 186.801C122.98 189.931 125.776 192.468 129.225 192.468Z" fill="white"/>
<path d="M121.203 174.572C121.456 173.73 121.909 172.949 122.53 172.283C123.152 171.617 123.926 171.083 124.8 170.719C125.673 170.354 126.624 170.168 127.586 170.173C128.547 170.178 129.495 170.374 130.364 170.748L141.513 161.602L149.289 166.395L133.346 179.11C132.557 180.392 131.278 181.368 129.749 181.852C128.221 182.336 126.55 182.295 125.053 181.735C123.557 181.176 122.338 180.138 121.628 178.818C120.919 177.497 120.767 175.987 121.203 174.572Z" fill="#FFB8B8"/>
<path d="M139.166 177.557L130.427 166.794L150.35 155.223L136.07 136.731C134.904 135.221 134.392 133.372 134.634 131.54C134.875 129.708 135.853 128.022 137.38 126.804C138.907 125.586 140.875 124.921 142.908 124.938C144.941 124.955 146.895 125.652 148.397 126.896L166.276 141.7C167.979 143.11 169.3 144.858 170.137 146.807C170.974 148.757 171.303 150.855 171.1 152.939C170.897 155.023 170.166 157.037 168.965 158.822C167.763 160.608 166.124 162.118 164.174 163.235L139.166 177.557Z" fill="#2F2E41"/>
<path d="M70.7 205.797C71.49 205.3 72.1502 204.651 72.6342 203.897C73.1181 203.143 73.4141 202.302 73.5011 201.433C73.5882 200.564 73.4642 199.689 73.138 198.868C72.8118 198.047 72.2913 197.301 71.6131 196.683L77.3899 184.092L69.8152 179.041L61.9326 196.925C60.8633 198.027 60.2769 199.448 60.2845 200.917C60.2921 202.386 60.8932 203.801 61.9739 204.895C63.0547 205.989 64.5399 206.684 66.1481 206.851C67.7564 207.017 69.376 206.642 70.7 205.797V205.797Z" fill="#FFB8B8"/>
<path d="M74.6031 193.013L60.9414 190.126L71.1221 163.483C72.8765 158.886 75.4648 154.587 78.78 150.764L95.389 131.597C96.908 129.844 99.1307 128.708 101.57 128.439C104.01 128.171 106.468 128.79 108.405 130.162C110.342 131.535 111.601 133.548 111.906 135.761C112.211 137.974 111.537 140.207 110.031 141.97L91.6015 163.556L74.6031 193.013Z" fill="#2F2E41"/>
<path d="M241.093 305H0.631133C0.463746 305 0.303205 304.94 0.184845 304.832C0.0664841 304.725 0 304.579 0 304.427C0 304.275 0.0664841 304.13 0.184845 304.022C0.303205 303.915 0.463746 303.854 0.631133 303.854H241.093C241.26 303.854 241.421 303.915 241.539 304.022C241.658 304.13 241.724 304.275 241.724 304.427C241.724 304.579 241.658 304.725 241.539 304.832C241.421 304.94 241.26 305 241.093 305Z" fill="#CCCCCC"/>
<path d="M334.367 304.714H328.686V2.57746C328.686 1.89388 328.986 1.23829 329.518 0.754924C330.051 0.271556 330.773 0 331.526 0C332.28 0 333.002 0.271556 333.535 0.754924C334.067 1.23829 334.367 1.89388 334.367 2.57746V304.714Z" fill="#4FD2CB"/>
<path d="M375.524 305H287.166C286.998 305 286.838 304.94 286.719 304.832C286.601 304.725 286.534 304.579 286.534 304.427C286.534 304.275 286.601 304.13 286.719 304.022C286.838 303.915 286.998 303.854 287.166 303.854H375.524C375.692 303.854 375.852 303.915 375.971 304.022C376.089 304.13 376.155 304.275 376.155 304.427C376.155 304.579 376.089 304.725 375.971 304.832C375.852 304.94 375.692 305 375.524 305Z" fill="#CCCCCC"/>
<path d="M373.781 39.521H291.134C290.381 39.5202 289.659 39.2484 289.126 38.7652C288.594 38.282 288.295 37.6269 288.294 36.9436V15.1783C288.295 14.4949 288.594 13.8398 289.126 13.3566C289.659 12.8734 290.381 12.6016 291.134 12.6008H373.787C374.271 12.6011 374.747 12.7137 375.171 12.9278L396.544 23.7525C396.984 23.9756 397.351 24.3012 397.607 24.6957C397.863 25.0903 397.999 25.5396 398 25.9975C398.001 26.4553 397.868 26.9052 397.614 27.3007C397.36 27.6963 396.994 28.0234 396.555 28.2482L375.176 39.1888C374.75 39.4063 374.269 39.5207 373.781 39.521Z" fill="#8AC485"/>
<path d="M366.239 86.4883H283.592C283.103 86.488 282.623 86.3736 282.197 86.1561L260.818 75.2155C260.378 74.9907 260.013 74.6636 259.759 74.268C259.505 73.8724 259.371 73.4226 259.373 72.9648C259.374 72.5069 259.509 72.0576 259.765 71.663C260.021 71.2685 260.388 70.9429 260.829 70.7198L282.202 59.8951C282.625 59.6809 283.101 59.5684 283.586 59.5681H366.239C366.992 59.5689 367.714 59.8407 368.246 60.3239C368.779 60.8071 369.078 61.4622 369.079 62.1456V83.9108C369.078 84.5942 368.779 85.2493 368.246 85.7325C367.714 86.2157 366.992 86.4875 366.239 86.4883Z" fill="#0F0E0E"/>
<path d="M366.554 132.596H283.908C283.419 132.596 282.939 132.481 282.513 132.264L261.133 121.323C260.694 121.099 260.328 120.772 260.074 120.376C259.82 119.98 259.687 119.531 259.688 119.073C259.689 118.615 259.825 118.165 260.081 117.771C260.337 117.376 260.704 117.051 261.144 116.828L282.518 106.003C282.941 105.789 283.417 105.676 283.902 105.676H366.554C367.307 105.677 368.029 105.949 368.562 106.432C369.094 106.915 369.394 107.57 369.395 108.253V130.019C369.394 130.702 369.094 131.357 368.562 131.84C368.029 132.324 367.307 132.595 366.554 132.596Z" fill="#8AC485"/>
</g>
<defs>
<clipPath id="clip0_464_410">
<rect width="398" height="305" fill="white"/>
</clipPath>
</defs>
</svg>
