<svg width="42" height="44" viewBox="0 0 42 44" fill="none" xmlns="http://www.w3.org/2000/svg">
<path d="M21 0C9.408 0 0 9.856 0 22C0 34.144 9.408 44 21 44C32.592 44 42 34.144 42 22C42 9.856 32.592 0 21 0ZM23.1 37.4H18.9V33H23.1V37.4ZM27.447 20.35L25.557 22.374C24.045 23.98 23.1 25.3 23.1 28.6H18.9V27.5C18.9 25.08 19.845 22.88 21.357 21.274L23.961 18.502C24.738 17.71 25.2 16.61 25.2 15.4C25.2 12.98 23.31 11 21 11C18.69 11 16.8 12.98 16.8 15.4H12.6C12.6 10.538 16.359 6.6 21 6.6C25.641 6.6 29.4 10.538 29.4 15.4C29.4 17.336 28.644 19.096 27.447 20.35Z" fill="#286C28"/>
</svg>
