<svg width="46" height="42" viewBox="0 0 46 42" fill="none" xmlns="http://www.w3.org/2000/svg">
<g clip-path="url(#clip0_468_271)">
<path d="M40.25 10.5H34.1742L30.6667 7H19.1667V10.5H28.98L32.4875 14H40.25V35H9.58333V19.25H5.75V35C5.75 36.925 7.475 38.5 9.58333 38.5H40.25C42.3583 38.5 44.0833 36.925 44.0833 35V14C44.0833 12.075 42.3583 10.5 40.25 10.5ZM15.3333 24.5C15.3333 29.33 19.6267 33.25 24.9167 33.25C30.2067 33.25 34.5 29.33 34.5 24.5C34.5 19.67 30.2067 15.75 24.9167 15.75C19.6267 15.75 15.3333 19.67 15.3333 24.5ZM24.9167 19.25C28.0792 19.25 30.6667 21.6125 30.6667 24.5C30.6667 27.3875 28.0792 29.75 24.9167 29.75C21.7542 29.75 19.1667 27.3875 19.1667 24.5C19.1667 21.6125 21.7542 19.25 24.9167 19.25ZM9.58333 10.5H15.3333V7H9.58333V1.75H5.75V7H0V10.5H5.75V15.75H9.58333V10.5Z" fill="#286C28"/>
</g>
<defs>
<clipPath id="clip0_468_271">
<rect width="46" height="42" fill="white"/>
</clipPath>
</defs>
</svg>
