<svg width="53" height="49" viewBox="0 0 53 49" fill="none" xmlns="http://www.w3.org/2000/svg">
<path d="M26.5 0C11.872 0 0 10.976 0 24.5C0 38.024 11.872 49 26.5 49C41.128 49 53 38.024 53 24.5C53 10.976 41.128 0 26.5 0ZM26.5 7.35C30.899 7.35 34.45 10.633 34.45 14.7C34.45 18.767 30.899 22.05 26.5 22.05C22.101 22.05 18.55 18.767 18.55 14.7C18.55 10.633 22.101 7.35 26.5 7.35ZM26.5 42.14C19.875 42.14 14.0185 39.004 10.6 34.251C10.6795 29.3755 21.2 26.705 26.5 26.705C31.7735 26.705 42.3205 29.3755 42.4 34.251C38.9815 39.004 33.125 42.14 26.5 42.14Z" fill="#286C28"/>
</svg>
