<svg width="34" height="34" viewBox="0 0 34 34" fill="none" xmlns="http://www.w3.org/2000/svg">
<path d="M17.0002 1.13336C14.9166 1.13336 12.8533 1.54377 10.9283 2.34114C9.00327 3.13851 7.25414 4.30724 5.78078 5.7806C4.30743 7.25396 3.1387 9.00309 2.34132 10.9281C1.54395 12.8532 1.13354 14.9164 1.13354 17C1.13354 19.0837 1.54395 21.1469 2.34132 23.0719C3.1387 24.997 4.30743 26.7461 5.78078 28.2195C7.25414 29.6928 9.00327 30.8615 10.9283 31.6589C12.8533 32.4563 14.9166 32.8667 17.0002 32.8667C19.0839 32.8667 21.1471 32.4563 23.0721 31.6589C24.9972 30.8615 26.7463 29.6928 28.2196 28.2195C29.693 26.7461 30.8617 24.997 31.6591 23.0719C32.4565 21.1469 32.8669 19.0837 32.8669 17C32.8669 14.9164 32.4565 12.8532 31.6591 10.9281C30.8617 9.00309 29.693 7.25396 28.2196 5.7806C26.7463 4.30724 24.9972 3.13851 23.0721 2.34114C21.1471 1.54377 19.0839 1.13336 17.0002 1.13336Z" fill="#8BB7F0"/>
<path d="M32.7772 18.6762C32.7795 18.6535 32.784 18.632 32.7863 18.6093C32.7829 18.6308 32.7783 18.6535 32.7772 18.6762ZM1.21387 18.6036C1.21727 18.6342 1.22293 18.6637 1.22633 18.6943C1.22293 18.6637 1.21727 18.6331 1.21387 18.6036ZM19.2622 21.2046H23.3683L24.0131 17.034H19.2622V14.7537C19.2622 13.0208 19.8289 11.484 21.4495 11.484H24.0539V7.8449C23.5961 7.7837 22.6293 7.64771 20.8001 7.64771C16.9808 7.64771 14.7425 9.66504 14.7425 14.2596V17.0351H10.8166V21.2058H14.7425V32.4484C15.5177 32.5652 16.3053 32.6445 17.1145 32.6445C17.8444 32.6445 18.5584 32.5776 19.2622 32.4824V21.2046Z" fill="white"/>
<path d="M17.0002 2.2667C25.1239 2.2667 31.7335 8.87629 31.7335 17C31.7335 25.1238 25.1239 31.7334 17.0002 31.7334C8.87648 31.7334 2.26688 25.1238 2.26688 17C2.26688 8.87629 8.87648 2.2667 17.0002 2.2667ZM17.0002 1.13336C8.23728 1.13336 1.13354 8.2371 1.13354 17C1.13354 25.763 8.23728 32.8667 17.0002 32.8667C25.7631 32.8667 32.8669 25.763 32.8669 17C32.8669 8.2371 25.7631 1.13336 17.0002 1.13336Z" fill="#4E7AB5"/>
</svg>
