<svg width="357" height="320" viewBox="0 0 357 320" fill="none" xmlns="http://www.w3.org/2000/svg">
<g clip-path="url(#clip0_466_404)">
<path d="M85.7089 173.499C82.8597 156.147 87.3455 136.405 99.8134 125.901C99.1067 145.082 104.385 163.928 114.714 179.106C118.716 184.944 123.701 190.962 123.546 198.363C123.45 202.969 121.261 207.259 118.377 210.491C115.492 213.724 111.939 216.054 108.428 218.348L107.882 219.315C97.5909 206.106 88.5581 190.852 85.7089 173.499Z" fill="#F0F0F0"/>
<path d="M100.041 126.167C94.8024 139.507 93.3913 154.387 96.0076 168.692C96.5228 171.783 97.4629 174.762 98.7933 177.52C100.166 180.159 102.134 182.331 104.494 183.812C106.669 185.242 109.041 186.419 110.873 188.427C111.797 189.47 112.518 190.724 112.986 192.107C113.455 193.489 113.662 194.969 113.592 196.448C113.505 200.14 112.256 203.576 110.933 206.888C109.464 210.565 107.886 214.358 107.982 218.493C107.993 218.993 107.31 218.985 107.298 218.484C107.132 211.292 111.702 205.515 112.72 198.613C113.195 195.393 112.82 191.99 110.831 189.494C109.091 187.311 106.647 186.095 104.433 184.668C102.112 183.262 100.129 181.231 98.6577 178.753C97.2081 176.081 96.1687 173.148 95.5839 170.079C94.1705 163.194 93.7172 156.1 94.2405 149.055C94.7986 141.011 96.5618 133.134 99.4538 125.767C99.633 125.311 100.219 125.714 100.041 126.167L100.041 126.167Z" fill="white"/>
<path d="M94.9269 164.142C92.7582 164.316 90.6058 163.607 88.8542 162.141C87.1026 160.676 85.8658 158.549 85.3646 156.142C85.2647 155.655 85.9257 155.455 86.0258 155.943C86.4888 158.186 87.6411 160.166 89.2746 161.527C90.9082 162.888 92.9154 163.54 94.934 163.364C95.3728 163.327 95.3631 164.105 94.9269 164.142Z" fill="white"/>
<path d="M103.306 183.251C106.25 179.463 107.832 174.551 107.734 169.495C107.724 168.994 108.408 169.003 108.418 169.503C108.511 174.765 106.856 179.873 103.785 183.807C103.492 184.182 103.015 183.624 103.306 183.251V183.251Z" fill="white"/>
<path d="M95.5997 141.494C96.4511 141.625 97.318 141.514 98.1224 141.171C98.9269 140.827 99.6437 140.261 100.209 139.525C100.497 139.146 100.974 139.704 100.687 140.08C100.059 140.891 99.2672 141.515 98.3791 141.897C97.4911 142.279 96.5344 142.407 95.5925 142.272C95.5028 142.267 95.4179 142.224 95.3551 142.151C95.2923 142.078 95.2562 141.981 95.2543 141.879C95.2557 141.776 95.2928 141.677 95.3574 141.605C95.4221 141.533 95.5092 141.493 95.5997 141.494H95.5997Z" fill="white"/>
<path d="M150.8 140.255C150.626 140.497 150.451 140.739 150.278 140.988C147.95 144.261 145.858 147.743 144.025 151.401C143.879 151.682 143.735 151.968 143.597 152.253C139.263 161.119 136.413 170.824 135.193 180.875C134.71 184.875 134.496 188.91 134.551 192.947C134.628 198.522 135.102 204.56 133.6 209.688C133.449 210.224 133.268 210.75 133.06 211.262L108.961 219.999C108.898 219.987 108.836 219.982 108.772 219.971L107.824 220.37C107.808 220.162 107.796 219.946 107.78 219.738C107.771 219.617 107.767 219.495 107.757 219.374C107.753 219.293 107.748 219.212 107.74 219.139C107.738 219.112 107.737 219.085 107.737 219.064C107.729 218.992 107.728 218.923 107.721 218.857C107.65 217.649 107.583 216.439 107.528 215.226C107.527 215.219 107.527 215.219 107.53 215.211C107.117 205.968 107.377 196.604 108.879 187.583C108.924 187.311 108.967 187.034 109.024 186.758C109.72 182.696 110.708 178.706 111.976 174.827C112.676 172.705 113.47 170.626 114.355 168.595C116.651 163.355 119.657 158.558 123.263 154.381C130.452 146.054 139.901 140.436 150.026 140.259C150.285 140.255 150.539 140.253 150.8 140.255Z" fill="#F0F0F0"/>
<path d="M150.843 140.622C139.603 147.685 130.603 158.599 125.124 171.813C123.9 174.634 123.074 177.657 122.677 180.77C122.377 183.818 122.799 186.901 123.9 189.699C124.88 192.332 126.151 194.897 126.552 197.755C126.738 199.221 126.649 200.716 126.292 202.141C125.935 203.566 125.317 204.889 124.479 206.023C122.456 208.911 119.641 210.799 116.832 212.537C113.714 214.466 110.447 216.414 108.336 219.78C108.08 220.188 107.539 219.712 107.795 219.305C111.468 213.449 118.173 211.967 122.637 207.154C124.72 204.908 126.222 201.934 125.954 198.578C125.719 195.643 124.411 192.998 123.398 190.342C122.289 187.629 121.781 184.649 121.917 181.662C122.173 178.535 122.895 175.481 124.052 172.63C126.566 166.165 129.958 160.19 134.103 154.923C138.804 148.883 144.379 143.802 150.586 139.901C150.97 139.66 151.225 140.383 150.843 140.622Z" fill="white"/>
<path d="M126.668 167.44C124.845 166.093 123.501 164.052 122.878 161.682C122.255 159.312 122.392 156.767 123.266 154.501C123.444 154.043 124.078 154.337 123.899 154.795C123.082 156.903 122.954 159.274 123.539 161.48C124.123 163.685 125.381 165.581 127.086 166.824C127.456 167.094 127.036 167.709 126.668 167.44H126.668Z" fill="white"/>
<path d="M123.248 188.439C127.604 187.431 131.465 184.592 134.062 180.489C134.319 180.082 134.861 180.557 134.604 180.964C131.894 185.228 127.87 188.173 123.336 189.211C122.904 189.309 122.819 188.537 123.248 188.439V188.439Z" fill="white"/>
<path d="M139.188 149.817C139.798 150.506 140.549 151.011 141.373 151.288C142.197 151.565 143.069 151.604 143.91 151.403C144.341 151.298 144.426 152.07 143.998 152.174C143.068 152.392 142.105 152.347 141.194 152.044C140.283 151.74 139.451 151.187 138.771 150.434C138.702 150.369 138.657 150.276 138.645 150.175C138.633 150.074 138.656 149.971 138.709 149.888C138.764 149.807 138.846 149.754 138.936 149.741C139.025 149.727 139.116 149.755 139.188 149.817V149.817Z" fill="white"/>
<path d="M188.653 45.3636C188.733 45.7675 188.786 46.178 188.81 46.5912L217.064 65.1397L223.932 60.6407L231.253 71.5476L219.776 80.8566C218.848 81.6087 217.732 81.9982 216.593 81.9666C215.455 81.935 214.357 81.4841 213.463 80.6816L184.328 54.5259C183.013 55.0797 181.581 55.1649 180.222 54.7701C178.864 54.3754 177.643 53.5193 176.723 52.3158C175.802 51.1123 175.226 49.6185 175.07 48.0329C174.913 46.4474 175.185 44.8453 175.849 43.4398C176.512 42.0343 177.536 40.8919 178.784 40.1647C180.032 39.4374 181.445 39.1598 182.835 39.3686C184.225 39.5775 185.526 40.263 186.565 41.3339C187.604 42.4048 188.333 43.8104 188.653 45.3637V45.3636Z" fill="#FFB6B6"/>
<path d="M217.457 63.0917C217.546 62.6185 217.725 62.173 217.979 61.7854C218.234 61.3978 218.559 61.0773 218.933 60.8458L231.977 52.758C233.714 51.266 235.9 50.6189 238.056 50.9585C240.212 51.2981 242.162 52.5968 243.477 54.5697C244.793 56.5425 245.367 59.0286 245.074 61.4827C244.781 63.9367 243.645 66.1585 241.915 67.6607L231.46 79.7468C231.162 80.0917 230.802 80.3594 230.404 80.5316C230.007 80.7038 229.581 80.7765 229.157 80.7447C228.732 80.7129 228.319 80.5774 227.945 80.3475C227.57 80.1175 227.244 79.7984 226.988 79.412L217.987 65.831C217.73 65.4447 217.55 65 217.459 64.5272C217.367 64.0544 217.367 63.5648 217.457 63.0917Z" fill="#3F3D56"/>
<path d="M240.761 16.0718C242.638 9.26525 246.906 3.02249 252.809 0.721494C258.711 -1.5795 267.355 1.92566 271.792 6.95843C279.91 16.1644 281.891 47.7901 276.314 57.7841C275.204 57.7173 271.377 57.6679 270.254 57.6201L268.666 51.5964V57.5607C259.903 57.2525 250.78 57.4455 241.652 57.645C240.833 50.5691 238.884 22.8784 240.761 16.0718Z" fill="#2F2E41"/>
<path d="M238.25 301.777H230.257L226.455 266.694L238.252 266.695L238.25 301.777Z" fill="#FFB6B6"/>
<path d="M308.218 296.121L300.484 298.415L289.028 265.558L300.443 262.173L308.218 296.121Z" fill="#FFB6B6"/>
<path d="M264.171 86.305L265.983 91.6633L265.62 97.0215L230.176 110.992L231.935 87.5415L235.919 82.1826L264.171 86.305Z" fill="#FFB6B6"/>
<path d="M252.965 38.0851C259.957 38.0851 265.624 31.6355 265.624 23.6794C265.624 15.7233 259.957 9.27368 252.965 9.27368C245.973 9.27368 240.306 15.7233 240.306 23.6794C240.306 31.6355 245.973 38.0851 252.965 38.0851Z" fill="#FFB7B7"/>
<path d="M244.266 4.9207C246.699 3.23324 249.485 2.32043 252.334 2.2777C255.182 2.23496 257.988 3.06387 260.459 4.67778C262.93 6.29168 264.974 8.63129 266.378 11.452C267.782 14.2726 268.495 17.4708 268.441 20.712C261.54 22.719 254.187 23.5585 246.394 21.1954L244.612 16.2342L243.562 21.1991C241.178 23.1075 238.877 23.104 236.659 21.1887C236.565 17.9567 237.218 14.7531 238.553 11.8983C239.888 9.04352 241.858 6.63748 244.266 4.9207Z" fill="#2F2E41"/>
<path d="M241.825 319.047H236.154L235.141 312.954L232.549 319.047H217.506C216.785 319.047 216.083 318.785 215.502 318.299C214.922 317.813 214.493 317.128 214.278 316.344C214.063 315.561 214.074 314.72 214.31 313.945C214.545 313.169 214.992 312.499 215.585 312.033L227.597 302.592V296.432L240.232 297.29L241.825 319.047Z" fill="#2F2E41"/>
<path d="M316.207 311.599L310.719 313.227L308.388 307.621L307.23 314.261L292.674 318.579C291.976 318.786 291.239 318.734 290.569 318.43C289.899 318.126 289.332 317.587 288.951 316.89C288.57 316.194 288.394 315.377 288.45 314.559C288.505 313.741 288.789 312.964 289.26 312.343L298.791 299.76L297.426 293.799L309.843 291.002L316.207 311.599Z" fill="#2F2E41"/>
<path d="M307.237 274.059L283.809 219.263L276.454 152.57C281.525 141.853 272.108 120.047 272.108 120.047V110.892L235.627 118.723V118.723C228.166 141.882 224.547 166.416 224.956 191.078L226.426 279.731H225.965C225.2 279.731 224.466 280.077 223.925 280.693C223.384 281.309 223.08 282.144 223.08 283.015C223.08 283.885 223.384 284.72 223.925 285.336C224.466 285.952 225.2 286.298 225.965 286.298H240.391C241.156 286.298 241.89 285.952 242.431 285.336C242.972 284.72 243.276 283.885 243.276 283.015C243.276 282.144 242.972 281.309 242.431 280.693C241.89 280.077 241.156 279.731 240.391 279.731H240.019L250.375 166.948L262.417 222.604L291.517 273.848C290.774 273.914 290.083 274.304 289.589 274.938C289.094 275.571 288.835 276.398 288.865 277.244C288.895 278.091 289.212 278.891 289.749 279.478C290.287 280.064 291.003 280.39 291.747 280.388H306.173C306.844 280.389 307.495 280.123 308.012 279.637C308.529 279.151 308.881 278.474 309.007 277.724C309.133 276.974 309.026 276.198 308.703 275.529C308.379 274.86 307.861 274.34 307.237 274.059H307.237Z" fill="#2F2E41"/>
<path d="M275.406 125.66H275.406C275.286 125.125 275.02 124.646 274.646 124.292C274.273 123.939 273.81 123.73 273.325 123.694C272.845 117.438 269.667 77.3157 269.547 76.1387L269.542 76.0889L268.622 53.725C268.588 52.9128 268.293 52.1431 267.793 51.5628C267.292 50.9826 266.621 50.6325 265.908 50.5795L261.049 50.218C260.983 50.2155 260.919 50.1836 260.873 50.129C260.827 50.0744 260.801 50.0015 260.801 49.9256C260.801 49.315 260.695 48.7103 260.49 48.1462C260.284 47.582 259.983 47.0694 259.604 46.6376C259.224 46.2058 258.774 45.8633 258.278 45.6296C257.782 45.3959 257.251 45.2756 256.714 45.2756H242.328C241.396 45.2761 240.497 45.6635 239.798 46.3652C239.099 47.0669 238.65 48.0346 238.534 49.0867C238.527 49.1591 238.497 49.2262 238.449 49.2744C238.401 49.3226 238.339 49.3485 238.275 49.3468L238.274 49.3468C236.639 49.3084 235.046 49.9382 233.785 51.1219C232.523 52.3055 231.676 53.9645 231.398 55.7979C229.431 68.8198 225.49 98.3747 227.438 114.806C228.117 120.525 227.808 129.128 227.552 133.914C227.526 134.376 227.581 134.84 227.714 135.278C227.846 135.716 228.053 136.121 228.323 136.468C227.749 136.656 227.262 137.09 226.964 137.679C226.666 138.268 226.581 138.966 226.726 139.625H226.726C226.876 140.3 227.255 140.88 227.781 141.238C228.306 141.595 228.935 141.7 229.529 141.53L273.732 128.849C274.325 128.679 274.835 128.247 275.149 127.649C275.463 127.051 275.555 126.336 275.406 125.66Z" fill="#3F3D56"/>
<path d="M202.349 219.681C202.341 218.212 201.876 216.794 201.037 215.679C200.198 214.563 199.038 213.822 197.765 213.586L119.394 198.941C118.643 198.8 117.874 198.839 117.136 199.056L98.7695 204.46L88.2313 207.564L68.7836 213.285C67.6096 213.632 66.57 214.413 65.8278 215.504C65.0856 216.596 64.6827 217.937 64.6824 219.317V312.767C64.6882 314.192 65.1208 315.572 65.9088 316.679C66.6967 317.786 67.7929 318.554 69.0163 318.857L148.842 317.828C149.217 317.92 149.599 317.965 149.982 317.963C150.541 317.964 151.096 317.868 151.629 317.678L199.056 319.021C200.175 318.623 201.152 317.826 201.841 316.746C202.531 315.667 202.896 314.364 202.883 313.03L202.349 219.681Z" fill="white"/>
<path d="M202.349 219.681C202.341 218.212 201.876 216.794 201.037 215.679C200.198 214.563 199.038 213.822 197.765 213.586L119.394 198.941C118.643 198.8 117.874 198.839 117.136 199.056L98.7695 204.46L88.2313 207.564L68.7836 213.285C67.6096 213.632 66.57 214.413 65.8278 215.504C65.0856 216.596 64.6827 217.937 64.6824 219.317V312.767C64.6882 314.192 65.1208 315.572 65.9088 316.679C66.6967 317.786 67.7929 318.554 69.0163 318.857L148.842 317.828C149.217 317.92 149.599 317.965 149.982 317.963C150.541 317.964 151.096 317.868 151.629 317.678L199.056 319.021C200.175 318.623 201.152 317.826 201.841 316.747C202.531 315.667 202.896 314.364 202.883 313.03L202.349 219.681ZM198.645 317.536L151.219 318.82C150.542 319.059 149.823 319.099 149.129 318.934L69.2991 317.336C68.3819 317.108 67.5602 316.532 66.9697 315.701C66.3792 314.871 66.0551 313.836 66.051 312.768V219.317C66.0516 218.361 66.3099 217.427 66.7912 216.643C67.2725 215.858 67.9535 215.261 68.7426 214.931C68.8678 214.877 68.9958 214.832 69.1257 214.796L89.7003 208.743L101.867 205.161L117.478 200.566C117.813 200.465 118.158 200.414 118.505 200.416C118.728 200.416 118.951 200.436 119.171 200.478L197.541 215.123C198.172 215.241 198.77 215.524 199.287 215.95C199.805 216.376 200.229 216.934 200.525 217.578C200.821 218.232 200.977 218.956 200.981 219.691L201.515 313.04C201.524 314.041 201.251 315.019 200.734 315.829C200.217 316.638 199.484 317.237 198.645 317.536Z" fill="#CCCCCC"/>
<path d="M200.525 217.578C200.471 217.618 200.413 217.648 200.351 217.667L177.299 224.758L170.123 226.964L149.713 233.241C149.655 233.257 149.595 233.266 149.535 233.267C149.494 233.266 149.453 233.262 149.412 233.256L67.1139 216.182L66.8401 216.125C66.6619 216.087 66.5041 215.97 66.4013 215.8C66.2985 215.63 66.2591 215.42 66.2917 215.217C66.3242 215.014 66.4261 214.834 66.575 214.716C66.724 214.598 66.9079 214.552 67.0865 214.588L68.7425 214.931L149.508 231.688L167.099 226.279L176.939 223.252L199.635 216.27L199.995 216.161C200.151 216.114 200.316 216.131 200.462 216.209C200.608 216.287 200.726 216.421 200.794 216.587C200.811 216.627 200.825 216.668 200.835 216.711C200.872 216.875 200.862 217.047 200.807 217.204C200.751 217.36 200.652 217.491 200.525 217.578Z" fill="#CCCCCC"/>
<path d="M150.22 318.145C149.844 318.145 149.539 317.801 149.535 320L148.851 235.122C148.847 232.065 149.151 231.713 149.529 231.709H149.535C149.91 231.709 150.216 232.053 150.22 235.107L150.904 319.986C150.907 317.789 150.604 318.141 150.226 318.145H150.22Z" fill="#CCCCCC"/>
<path d="M177.494 319.13L170.124 319.219L167.099 226.279L89.9239 208.805C89.8483 208.79 89.7737 208.769 89.7004 208.743C89.1076 208.55 88.5897 208.135 88.2314 207.564L98.7696 204.46L101.867 205.161L175.096 221.737C175.481 221.823 175.845 222.003 176.163 222.265C176.482 222.527 176.746 222.863 176.939 223.252C177.167 223.704 177.489 318.59 177.494 319.13Z" fill="#CCCCCC"/>
<path d="M236.526 49.5699C236.52 48.4631 236.17 47.3946 235.537 46.5538C234.905 45.713 234.031 45.1543 233.071 44.9767L174.007 33.9396C173.441 33.8329 172.861 33.8622 172.305 34.0257L158.463 38.0986L150.521 40.4382L135.864 44.7497C134.979 45.0112 134.196 45.5995 133.636 46.4222C133.077 47.245 132.773 48.2558 132.773 49.296V104.384C132.777 105.457 133.104 106.497 133.697 107.332C134.291 108.166 135.117 108.745 136.039 108.973L196.2 123.539C196.483 123.608 196.771 123.642 197.06 123.641C197.481 123.642 197.899 123.569 198.301 123.426L234.044 110.581C234.887 110.281 235.624 109.68 236.143 108.867C236.663 108.054 236.938 107.072 236.929 106.066L236.526 49.5699Z" fill="white"/>
<path d="M173.338 37.9849C173.295 37.9848 173.252 37.9911 173.21 38.0036L136.769 48.7277C136.659 48.7603 136.561 48.8337 136.491 48.9364C136.421 49.0391 136.383 49.1653 136.383 49.2951V104.382C136.384 104.516 136.424 104.646 136.498 104.75C136.573 104.855 136.676 104.927 136.791 104.955L196.952 119.521C197.039 119.542 197.129 119.537 197.214 119.507L232.958 106.663C233.063 106.625 233.155 106.55 233.22 106.448C233.285 106.347 233.319 106.224 233.318 106.099L232.917 49.6027C232.916 49.4645 232.872 49.3311 232.793 49.2261C232.714 49.1211 232.605 49.0514 232.485 49.0292L173.421 37.9925C173.394 37.9875 173.366 37.9849 173.338 37.9849Z" fill="#88D050"/>
<path d="M236.526 49.5699C236.52 48.4631 236.17 47.3946 235.537 46.5538C234.905 45.713 234.031 45.1543 233.071 44.9767L174.007 33.9396C173.441 33.8329 172.861 33.8622 172.305 34.0257L158.463 38.0986L150.521 40.4382L135.864 44.7497C134.979 45.0112 134.196 45.5995 133.636 46.4222C133.077 47.245 132.773 48.2558 132.773 49.296V104.384C132.777 105.457 133.104 106.497 133.697 107.332C134.291 108.166 135.117 108.745 136.039 108.973L196.2 123.539C196.483 123.608 196.771 123.642 197.06 123.641C197.481 123.642 197.899 123.569 198.301 123.426L234.044 110.581C234.887 110.281 235.624 109.68 236.143 108.867C236.663 108.054 236.938 107.072 236.929 106.066L236.526 49.5699ZM233.734 109.462L197.991 122.307C197.482 122.487 196.94 122.517 196.417 122.393L136.252 107.827C135.561 107.655 134.942 107.221 134.497 106.595C134.052 105.969 133.808 105.189 133.805 104.384V49.2961C133.805 48.5751 134 47.8716 134.362 47.2804C134.725 46.6893 135.238 46.2389 135.833 45.99C135.927 45.9497 136.024 45.9157 136.122 45.8883L151.628 41.3264L160.797 38.6268L172.563 35.1642C172.815 35.0876 173.075 35.0494 173.336 35.0507C173.505 35.0507 173.672 35.0664 173.838 35.0977L232.902 46.1348C233.378 46.2236 233.828 46.437 234.219 46.7582C234.609 47.0794 234.928 47.4995 235.151 47.9854C235.374 48.478 235.492 49.0236 235.495 49.5778L235.897 106.074C235.905 106.828 235.698 107.565 235.309 108.175C234.919 108.786 234.367 109.237 233.734 109.462V109.462Z" fill="#3F3D56"/>
<path d="M235.151 47.9854C235.111 48.0154 235.067 48.0378 235.02 48.0519L217.647 53.3963L212.239 55.0591L196.857 59.7893C196.813 59.8015 196.768 59.8081 196.723 59.8088C196.692 59.8082 196.661 59.8056 196.63 59.801L134.606 46.9329L134.399 46.8898C134.265 46.8612 134.146 46.7732 134.068 46.6449C133.991 46.5167 133.961 46.3588 133.985 46.2056C134.01 46.0525 134.087 45.9167 134.199 45.8278C134.312 45.739 134.45 45.7045 134.585 45.7318L135.833 45.99L196.702 58.6194L209.96 54.5426L217.376 52.2616L234.481 46.9994L234.752 46.9172C234.87 46.882 234.994 46.8948 235.104 46.9535C235.214 47.0121 235.302 47.1128 235.354 47.238C235.367 47.2679 235.377 47.2994 235.385 47.3319C235.413 47.455 235.406 47.5851 235.364 47.7029C235.321 47.8207 235.247 47.9198 235.151 47.9854Z" fill="#3F3D56"/>
<path d="M197.238 123.778C197.103 123.778 196.972 123.717 196.875 123.608C196.779 123.499 196.724 123.351 196.723 123.196L196.207 59.2272C196.206 59.0716 196.259 58.9218 196.355 58.8107C196.451 58.6997 196.581 58.6365 196.718 58.635H196.723C196.859 58.635 196.989 58.6961 197.086 58.805C197.182 58.9139 197.237 59.0618 197.238 59.2165L197.754 123.185C197.755 123.341 197.702 123.491 197.606 123.602C197.511 123.713 197.38 123.776 197.243 123.778H197.238Z" fill="#3F3D56"/>
<path d="M217.647 115.996L212.239 117.659L209.96 54.5427L151.796 41.3733C151.739 41.3619 151.683 41.3462 151.628 41.3264C151.181 41.1816 150.791 40.8685 150.521 40.4383L158.463 38.0986L160.797 38.6268L215.987 51.1194C216.277 51.1846 216.551 51.3204 216.791 51.5176C217.031 51.7148 217.23 51.9687 217.376 52.2618C217.548 52.6021 217.644 115.589 217.647 115.996Z" fill="#3F3D56"/>
<path d="M215.224 80.0098C215.501 80.279 215.759 80.5726 215.995 80.8879L248.393 76.5821L251.544 68.3081L263.139 72.0874L258.811 87.3517C258.462 88.5849 257.77 89.6557 256.84 90.4035C255.91 91.1512 254.792 91.5355 253.654 91.4987L216.559 90.2987C215.795 91.6361 214.691 92.6769 213.393 93.2827C212.096 93.8885 210.668 94.0306 209.298 93.6901C207.929 93.3496 206.682 92.5426 205.726 91.3764C204.769 90.2103 204.146 88.7403 203.942 87.1619C203.737 85.5836 203.959 83.9717 204.579 82.5406C205.199 81.1096 206.187 79.9272 207.412 79.1508C208.637 78.3744 210.04 78.0407 211.436 78.1941C212.831 78.3476 214.153 78.9809 215.224 80.0098Z" fill="#FFB6B6"/>
<path d="M247.634 74.6724C247.457 74.2319 247.367 73.7533 247.368 73.2693C247.369 72.7853 247.462 72.3073 247.64 71.8679L253.865 56.5192C254.477 54.1425 255.891 52.1388 257.799 50.9474C259.707 49.756 261.952 49.4741 264.042 50.1636C266.133 50.853 267.897 52.4576 268.949 54.6254C270.001 56.7932 270.255 59.3474 269.655 61.7277L267.605 78.5258C267.546 79.0052 267.398 79.4646 267.169 79.8727C266.94 80.2808 266.637 80.6281 266.28 80.8908C265.923 81.1536 265.52 81.3256 265.099 81.3953C264.678 81.4649 264.249 81.4305 263.841 81.2944L249.496 76.5105C249.087 76.3746 248.71 76.14 248.388 75.8228C248.067 75.5056 247.81 75.1132 247.634 74.6724Z" fill="#3F3D56"/>
<path d="M356.312 319.814H0.686541C0.504663 319.813 0.330409 319.73 0.201988 319.584C0.073567 319.437 0.00146484 319.239 0.00146484 319.032C0.00146484 318.825 0.073567 318.626 0.201988 318.48C0.330409 318.333 0.504663 318.251 0.686541 318.25H356.312C356.495 318.25 356.669 318.332 356.798 318.479C356.927 318.626 357 318.824 357 319.032C357 319.239 356.927 319.438 356.798 319.585C356.669 319.731 356.495 319.814 356.312 319.814Z" fill="#CACACA"/>
<path d="M69.3098 236.736C80.7224 236.736 89.9741 226.208 89.9741 213.221C89.9741 200.234 80.7224 189.706 69.3098 189.706C57.8971 189.706 48.6454 200.234 48.6454 213.221C48.6454 226.208 57.8971 236.736 69.3098 236.736Z" fill="#88D050"/>
<path d="M66.4906 225.46C66.1338 225.46 65.7818 225.365 65.4627 225.184C65.1435 225.002 64.866 224.738 64.6519 224.413L59.0144 215.859C58.6486 215.305 58.4916 214.607 58.5778 213.92C58.664 213.233 58.9865 212.614 59.4742 212.198C59.9619 211.781 60.5749 211.603 61.1784 211.701C61.7819 211.799 62.3264 212.166 62.6922 212.721L66.3805 218.317L75.8533 202.147C76.0203 201.86 76.2354 201.614 76.4864 201.421C76.7373 201.229 77.0191 201.095 77.3156 201.027C77.6121 200.959 77.9175 200.958 78.2142 201.025C78.511 201.091 78.7933 201.224 79.045 201.415C79.2966 201.606 79.5127 201.851 79.6808 202.138C79.8489 202.424 79.9658 202.745 80.0246 203.082C80.0835 203.42 80.0832 203.768 80.0238 204.105C79.9644 204.442 79.8471 204.763 79.6785 205.049L68.4034 224.295C68.1995 224.643 67.9251 224.93 67.6035 225.133C67.2818 225.336 66.9221 225.447 66.5546 225.459C66.5333 225.459 66.512 225.46 66.4906 225.46Z" fill="white"/>
<path d="M157.298 88.3193C157.234 88.3192 157.17 88.311 157.107 88.2949L139.219 83.6984C138.995 83.6406 138.801 83.4841 138.678 83.2634C138.556 83.0426 138.515 82.7756 138.566 82.521C138.616 82.2664 138.753 82.045 138.947 81.9054C139.141 81.7658 139.376 81.7194 139.6 81.7765L157.488 86.3731C157.695 86.4265 157.879 86.5651 158.002 86.7624C158.126 86.9597 158.181 87.202 158.157 87.4428C158.134 87.6836 158.033 87.9061 157.875 88.0678C157.716 88.2295 157.511 88.319 157.298 88.3193Z" fill="white"/>
<path d="M88.4534 273.32C88.3905 273.335 88.3263 273.342 88.262 273.34L69.926 272.989C69.6968 272.984 69.4786 272.876 69.3194 272.688C69.1601 272.501 69.0729 272.249 69.0767 271.988C69.0805 271.727 69.1751 271.478 69.3397 271.297C69.5043 271.115 69.7255 271.015 69.9548 271.019L88.2908 271.371C88.5037 271.375 88.7077 271.468 88.864 271.632C89.0203 271.797 89.1178 272.021 89.1379 272.262C89.1581 272.504 89.0994 272.745 88.9731 272.94C88.8468 273.135 88.6618 273.27 88.4534 273.32Z" fill="#E6E6E6"/>
<path d="M94.8008 284.483C94.7379 284.498 94.6737 284.505 94.6094 284.503L76.2734 284.152C76.0442 284.147 75.826 284.039 75.6668 283.851C75.5075 283.664 75.4203 283.412 75.4241 283.151C75.4279 282.89 75.5225 282.641 75.6871 282.46C75.8517 282.278 76.0729 282.178 76.3022 282.182L94.6382 282.534C94.8511 282.538 95.0551 282.631 95.2114 282.796C95.3677 282.96 95.4652 283.184 95.4853 283.426C95.5055 283.667 95.4468 283.908 95.3205 284.103C95.1942 284.298 95.0092 284.433 94.8008 284.483Z" fill="#E6E6E6"/>
</g>
<defs>
<clipPath id="clip0_466_404">
<rect width="357" height="320" fill="white"/>
</clipPath>
</defs>
</svg>
