<svg width="39" height="43" viewBox="0 0 39 43" fill="none" xmlns="http://www.w3.org/2000/svg">
<g filter="url(#filter0_d_434_189)">
<path d="M22.2519 36.9716L32.7792 34.6933C32.7792 34.6933 28.9795 9.00766 28.9511 8.83594C28.9227 8.66422 28.7805 8.55703 28.6438 8.55703C28.5016 8.55703 25.8295 8.35797 25.8295 8.35797C25.8295 8.35797 23.9669 6.50078 23.7273 6.30172C23.6778 6.25256 23.6175 6.21551 23.5513 6.19344L22.218 36.9727L22.2519 36.9716ZM16.9658 18.4861C16.9658 18.4861 15.7812 17.8703 14.3791 17.8703C12.2659 17.8703 12.1861 19.1861 12.1861 19.5339C12.1861 21.3288 16.9089 22.0342 16.9089 26.2845C16.9089 29.6281 14.8067 31.7642 11.9411 31.7642C8.50562 31.7642 6.77969 29.6281 6.77969 29.6281L7.71922 26.5864C7.71922 26.5864 9.53594 28.1417 11.0464 28.1417C12.0319 28.1417 12.4705 27.3498 12.4705 26.78C12.4705 24.4219 8.59641 24.3136 8.59641 20.4286C8.545 17.1648 10.8867 13.9853 15.638 13.9853C17.4722 13.9853 18.3723 14.5092 18.3723 14.5092L16.9942 18.4741L16.9658 18.4861ZM16.1794 3.2075C16.373 3.2075 16.572 3.26437 16.7656 3.40656C15.3295 4.08469 13.7578 5.79969 13.1081 9.22859C12.1957 9.52546 11.2783 9.80659 10.3562 10.0719C11.1087 7.46875 12.9364 3.225 16.1783 3.225L16.1794 3.2075ZM17.9797 7.50812V7.70719C16.8805 8.04297 15.6664 8.41375 14.4873 8.77797C15.1655 6.18578 16.4298 4.92141 17.5291 4.44891C17.808 5.17844 17.9786 6.16391 17.9786 7.50812H17.9797ZM18.765 4.25641C19.7734 4.35922 20.4286 5.51531 20.8442 6.81469C20.3367 6.97984 19.7734 7.15047 19.1577 7.34406V6.97984C19.1577 5.88063 19.0155 4.98047 18.765 4.25094V4.25641ZM23.1291 6.13547C23.0952 6.13547 23.0383 6.16391 23.0153 6.16391C22.9869 6.16391 22.5942 6.27219 21.973 6.47125C21.3572 4.67094 20.258 3.01391 18.3155 3.01391H18.1448C17.587 2.30734 16.9034 2 16.3161 2C11.7869 2 9.62234 7.65688 8.94422 10.528C7.20078 11.0573 5.93641 11.4511 5.79422 11.508C4.80875 11.8208 4.78031 11.8503 4.66656 12.7778C4.55828 13.4505 2 33.2856 2 33.2856L21.7728 37L23.1291 6.13547Z" fill="white"/>
</g>
<defs>
<filter id="filter0_d_434_189" x="-1.75" y="0" width="43" height="43" filterUnits="userSpaceOnUse" color-interpolation-filters="sRGB">
<feFlood flood-opacity="0" result="BackgroundImageFix"/>
<feColorMatrix in="SourceAlpha" type="matrix" values="0 0 0 0 0 0 0 0 0 0 0 0 0 0 0 0 0 0 127 0" result="hardAlpha"/>
<feOffset dx="2" dy="2"/>
<feGaussianBlur stdDeviation="2"/>
<feColorMatrix type="matrix" values="0 0 0 0 0 0 0 0 0 0 0 0 0 0 0 0 0 0 0.25 0"/>
<feBlend mode="normal" in2="BackgroundImageFix" result="effect1_dropShadow_434_189"/>
<feBlend mode="normal" in="SourceGraphic" in2="effect1_dropShadow_434_189" result="shape"/>
</filter>
</defs>
</svg>
