<svg width="40" height="40" viewBox="0 0 40 40" fill="none" xmlns="http://www.w3.org/2000/svg">
<g clip-path="url(#clip0_467_468)">
<path d="M15.7667 28.9L18.15 26.5167C19.3667 27.45 20.65 28.2666 22.0167 28.9667L25.6833 25.3C26.15 24.8333 26.8 24.7 27.3833 24.8833C29.25 25.5 31.25 25.8333 33.3333 25.8333C34.25 25.8333 35 26.5833 35 27.5V33.3333C35 34.25 34.25 35 33.3333 35C26.7 35 20.6 32.7167 15.7667 28.9ZM11.0833 24.2C7.26665 19.3833 4.99998 13.2833 4.99998 6.66665C4.99998 5.74998 5.74998 4.99998 6.66665 4.99998H12.4833C13.4 4.99998 14.15 5.74998 14.15 6.66665C14.15 8.73332 14.4833 10.75 15.1 12.6167C15.3 13.2 15.15 13.8667 14.7 14.3167L11.0333 17.9833C11.7333 19.3333 12.5333 20.6167 13.4666 21.8167L32.9667 2.31665L35.3167 4.68332L4.66665 35.3167L2.31665 32.9667L11.0833 24.2Z" fill="#8AC485"/>
</g>
<defs>
<clipPath id="clip0_467_468">
<rect width="40" height="40" fill="white" transform="matrix(0 1 -1 0 40 0)"/>
</clipPath>
</defs>
</svg>
